<svg width="36" height="36" viewBox="0 0 36 36" fill="none" xmlns="http://www.w3.org/2000/svg">
<path d="M30.4444 21.5556H5.55556C3.59188 21.5556 2 23.1474 2 25.1111V30.4444C2 32.4081 3.59188 34 5.55556 34H30.4444C32.4081 34 34 32.4081 34 30.4444V25.1111C34 23.1474 32.4081 21.5556 30.4444 21.5556Z" stroke="white" stroke-width="4"/>
<path d="M14.4444 2.88889H5.55556C4.61256 2.88889 3.70819 3.26349 3.0414 3.93028C2.3746 4.59708 2 5.50145 2 6.44444V11.7778C2 12.7208 2.3746 13.6251 3.0414 14.2919C3.70819 14.9587 4.61256 15.3333 5.55556 15.3333H14.4444" stroke="white" stroke-width="4" stroke-linecap="round"/>
<path d="M26.8889 16.2222C30.8162 16.2222 34 13.0385 34 9.11111C34 5.18375 30.8162 2 26.8889 2C22.9615 2 19.7778 5.18375 19.7778 9.11111C19.7778 13.0385 22.9615 16.2222 26.8889 16.2222Z" stroke="white" stroke-width="4"/>
<path d="M26.8889 11.7778C28.3617 11.7778 29.5556 10.5839 29.5556 9.11111C29.5556 7.63835 28.3617 6.44444 26.8889 6.44444C25.4161 6.44444 24.2222 7.63835 24.2222 9.11111C24.2222 10.5839 25.4161 11.7778 26.8889 11.7778Z" fill="white"/>
</svg>
