<svg width="32" height="33" viewBox="0 0 32 33" fill="none" xmlns="http://www.w3.org/2000/svg">
<path d="M16.42 14.48C15.2953 14.4682 14.1992 14.1238 13.2698 13.4904C12.3404 12.8569 11.6191 11.9626 11.1969 10.9201C10.7747 9.87753 10.6703 8.73338 10.897 7.63167C11.1236 6.52996 11.6712 5.51994 12.4707 4.72877C13.2702 3.9376 14.2859 3.40066 15.3899 3.18554C16.4939 2.97042 17.6369 3.08675 18.675 3.51988C19.713 3.95301 20.5997 4.68357 21.2234 5.61958C21.8471 6.5556 22.18 7.65522 22.18 8.78001C22.1695 10.2989 21.5573 11.7516 20.4777 12.82C19.398 13.8884 17.9389 14.4853 16.42 14.48ZM16.42 5.08001C15.6909 5.09183 14.9815 5.31885 14.381 5.73253C13.7805 6.14621 13.3156 6.72812 13.0448 7.40516C12.7739 8.0822 12.7091 8.82419 12.8586 9.53792C13.0081 10.2517 13.3651 10.9053 13.8849 11.4168C14.4046 11.9282 15.0639 12.2747 15.78 12.4127C16.496 12.5507 17.2369 12.474 17.9095 12.1922C18.5821 11.9105 19.1564 11.4363 19.5604 10.8292C19.9644 10.2222 20.1799 9.50922 20.18 8.78001C20.1695 7.79157 19.768 6.84752 19.0635 6.15419C18.3589 5.46087 17.4085 5.07467 16.42 5.08001Z" fill="white"/>
<path d="M16.42 14.48C15.2953 14.4682 14.1992 14.1238 13.2698 13.4904C12.3404 12.8569 11.6191 11.9626 11.1969 10.9201C10.7747 9.87753 10.6703 8.73338 10.897 7.63167C11.1237 6.52996 11.6712 5.51994 12.4707 4.72877C13.2702 3.9376 14.2859 3.40066 15.3899 3.18554C16.4939 2.97042 17.6369 3.08675 18.675 3.51988C19.713 3.95301 20.5997 4.68357 21.2234 5.61958C21.8471 6.5556 22.18 7.65522 22.18 8.78001C22.1695 10.2989 21.5573 11.7516 20.4777 12.82C19.398 13.8884 17.9389 14.4853 16.42 14.48ZM16.42 5.08001C15.6909 5.09183 14.9816 5.31885 14.381 5.73253C13.7805 6.14621 13.3156 6.72812 13.0448 7.40516C12.7739 8.0822 12.7091 8.82419 12.8586 9.53792C13.0081 10.2517 13.3651 10.9053 13.8849 11.4168C14.4046 11.9282 15.064 12.2747 15.78 12.4127C16.496 12.5507 17.2369 12.474 17.9095 12.1922C18.5821 11.9105 19.1564 11.4363 19.5604 10.8292C19.9644 10.2222 20.18 9.50922 20.18 8.78001C20.1695 7.79157 19.7681 6.84752 19.0635 6.15419C18.3589 5.46087 17.4085 5.07467 16.42 5.08001ZM19.91 15.82C15.4746 15.0482 10.9084 15.7507 6.91005 17.82C6.62622 17.9776 6.3912 18.2102 6.23071 18.4924C6.07021 18.7746 5.99041 19.0955 6.00005 19.42V22.98C6.00005 23.2452 6.1054 23.4996 6.29294 23.6871C6.48048 23.8747 6.73483 23.98 7.00005 23.98C7.26526 23.98 7.51962 23.8747 7.70715 23.6871C7.89469 23.4996 8.00005 23.2452 8.00005 22.98V19.55C11.7077 17.6896 15.924 17.0994 20 17.87L19.91 15.82Z" fill="white"/>
<path d="M31 20.1701H24.3V18.6901C24.3 18.4248 24.1946 18.1705 24.0071 17.983C23.8196 17.7954 23.5652 17.6901 23.3 17.6901C23.0348 17.6901 22.7804 17.7954 22.5929 17.983C22.4054 18.1705 22.3 18.4248 22.3 18.6901V20.1701H15C14.7348 20.1701 14.4804 20.2754 14.2929 20.463C14.1054 20.6505 14 20.9048 14 21.1701V31.1701C14 31.4353 14.1054 31.6896 14.2929 31.8772C14.4804 32.0647 14.7348 32.1701 15 32.1701H31C31.2652 32.1701 31.5196 32.0647 31.7071 31.8772C31.8946 31.6896 32 31.4353 32 31.1701V21.1701C32 20.9048 31.8946 20.6505 31.7071 20.463C31.5196 20.2754 31.2652 20.1701 31 20.1701ZM30 30.1701H16V22.1701H22.3V22.5801C22.3 22.8453 22.4054 23.0996 22.5929 23.2872C22.7804 23.4747 23.0348 23.5801 23.3 23.5801C23.5652 23.5801 23.8196 23.4747 24.0071 23.2872C24.1946 23.0996 24.3 22.8453 24.3 22.5801V22.1701H30V30.1701Z" fill="white"/>
<path d="M19.81 25.59H25.77V26.99H19.81V25.59ZM8.84 10.41C6.07144 10.4564 3.3509 11.1408 0.89 12.41C0.622362 12.5514 0.398177 12.7629 0.241415 13.0218C0.0846523 13.2807 0.00120685 13.5774 0 13.88V16.98C0 17.2453 0.105357 17.4996 0.292893 17.6871C0.48043 17.8747 0.734784 17.98 1 17.98C1.26522 17.98 1.51957 17.8747 1.70711 17.6871C1.89464 17.4996 2 17.2453 2 16.98V14.08C4.3513 12.9097 6.95456 12.3361 9.58 12.41C9.2365 11.7833 8.98716 11.1094 8.84 10.41ZM31.11 12.4C28.9029 11.2423 26.4772 10.5609 23.99 10.4C23.8435 11.0982 23.5977 11.7717 23.26 12.4C25.6031 12.4561 27.9047 13.0298 30 14.08V16.98C30 17.2453 30.1054 17.4996 30.2929 17.6871C30.4804 17.8747 30.7348 17.98 31 17.98C31.2652 17.98 31.5196 17.8747 31.7071 17.6871C31.8946 17.4996 32 17.2453 32 16.98V13.88C32.0006 13.5757 31.918 13.2769 31.7612 13.0161C31.6043 12.7552 31.3791 12.5422 31.11 12.4ZM8.66 8.78004V8.11004C7.87662 8.0052 7.16385 7.60228 6.67007 6.98514C6.17629 6.36799 5.93955 5.58419 6.00914 4.7969C6.07872 4.0096 6.44926 3.27947 7.04362 2.7585C7.63798 2.23752 8.41037 1.96585 9.2 2.00004C10.0213 1.99855 10.8107 2.31791 11.4 2.89004C11.9199 2.46122 12.4909 2.09846 13.1 1.81004C12.4196 1.0277 11.5181 0.469878 10.5144 0.21011C9.51063 -0.0496588 8.45173 0.000815481 7.47724 0.35488C6.50275 0.708945 5.65842 1.34998 5.05553 2.19349C4.45264 3.03701 4.11949 4.04341 4.1 5.08004C4.12099 6.3488 4.6142 7.56416 5.4833 8.48874C6.3524 9.41331 7.53497 9.98069 8.8 10.08C8.71517 9.65167 8.66832 9.21665 8.66 8.78004ZM22.77 4.00762e-05C22.0828 0.000191363 21.4025 0.137346 20.7689 0.403485C20.1353 0.669623 19.5612 1.05941 19.08 1.55004C19.756 1.79501 20.3953 2.13147 20.98 2.55004C21.4468 2.22597 21.9929 2.03467 22.5599 1.99655C23.1269 1.95842 23.6937 2.0749 24.1997 2.33356C24.7057 2.59222 25.1321 2.98336 25.4333 3.46529C25.7345 3.94721 25.8992 4.50184 25.91 5.07004C25.9037 5.65368 25.7322 6.2236 25.4155 6.71382C25.0987 7.20404 24.6495 7.59452 24.12 7.84004C24.1602 8.1484 24.1803 8.45906 24.18 8.77004C24.1773 9.17201 24.1439 9.57318 24.08 9.97004C25.1694 9.68997 26.1356 9.05762 26.8283 8.1714C27.521 7.28518 27.9013 6.19482 27.91 5.07004C27.8968 3.71734 27.3488 2.42484 26.3857 1.47488C25.4226 0.524912 24.1227 -0.00530855 22.77 4.00762e-05Z" fill="white"/>
</svg>
