<svg width="31" height="31" viewBox="0 0 31 31" fill="none" xmlns="http://www.w3.org/2000/svg">
<path fill-rule="evenodd" clip-rule="evenodd" d="M20.0017 5.0014C20.002 6.03577 19.6816 7.04478 19.0846 7.88949C18.4876 8.7342 17.6435 9.37305 16.6683 9.71807V13.3347H21.6683C22.9944 13.3347 24.2662 13.8615 25.2039 14.7992C26.1416 15.7369 26.6683 17.0087 26.6683 18.3347V20.2847C27.7808 20.6779 28.7185 21.4517 29.3156 22.4694C29.9127 23.4871 30.1308 24.6831 29.9314 25.8461C29.7319 27.009 29.1277 28.064 28.2256 28.8245C27.3235 29.5851 26.1816 30.0022 25.0017 30.0022C23.8218 30.0022 22.6798 29.5851 21.7777 28.8245C20.8756 28.064 20.2715 27.009 20.072 25.8461C19.8725 24.6831 20.0906 23.4871 20.6877 22.4694C21.2849 21.4517 22.2225 20.6779 23.335 20.2847V18.3347C23.335 17.8927 23.1594 17.4688 22.8469 17.1562C22.5343 16.8437 22.1104 16.6681 21.6683 16.6681H8.33501C7.89298 16.6681 7.46906 16.8437 7.1565 17.1562C6.84394 17.4688 6.66834 17.8927 6.66834 18.3347V20.2847C7.78083 20.6779 8.7185 21.4517 9.31561 22.4694C9.91272 23.4871 10.1308 24.6831 9.93136 25.8461C9.7319 27.009 9.12773 28.064 8.22563 28.8245C7.32353 29.5851 6.1816 30.0022 5.00168 30.0022C3.82175 30.0022 2.67982 29.5851 1.77772 28.8245C0.875625 28.064 0.27145 27.009 0.0719917 25.8461C-0.127467 24.6831 0.0906341 23.4871 0.687744 22.4694C1.28485 21.4517 2.22252 20.6779 3.33501 20.2847V18.3347C3.33501 17.0087 3.86179 15.7369 4.79948 14.7992C5.73716 13.8615 7.00893 13.3347 8.33501 13.3347H13.335V9.71807C12.4703 9.41279 11.7061 8.87564 11.126 8.16535C10.546 7.45505 10.1723 6.59895 10.046 5.69064C9.9197 4.78233 10.0455 3.85677 10.4098 3.01515C10.774 2.17353 11.3626 1.44824 12.1112 0.918582C12.8599 0.388924 13.7397 0.075282 14.6546 0.0119451C15.5694 -0.0513917 16.4841 0.138015 17.2986 0.559457C18.1131 0.9809 18.796 1.61816 19.2727 2.40156C19.7495 3.18496 20.0016 4.08435 20.0017 5.0014ZM15.0017 3.33474C14.5596 3.33474 14.1357 3.51033 13.8232 3.82289C13.5106 4.13545 13.335 4.55938 13.335 5.0014C13.335 5.44343 13.5106 5.86735 13.8232 6.17991C14.1357 6.49248 14.5596 6.66807 15.0017 6.66807C15.4437 6.66807 15.8676 6.49248 16.1802 6.17991C16.4927 5.86735 16.6683 5.44343 16.6683 5.0014C16.6683 4.55938 16.4927 4.13545 16.1802 3.82289C15.8676 3.51033 15.4437 3.33474 15.0017 3.33474ZM5.00168 23.3347C4.55965 23.3347 4.13573 23.5103 3.82317 23.8229C3.51061 24.1355 3.33501 24.5594 3.33501 25.0014C3.33501 25.4434 3.51061 25.8674 3.82317 26.1799C4.13573 26.4925 4.55965 26.6681 5.00168 26.6681C5.4437 26.6681 5.86763 26.4925 6.18019 26.1799C6.49275 25.8674 6.66834 25.4434 6.66834 25.0014C6.66834 24.5594 6.49275 24.1355 6.18019 23.8229C5.86763 23.5103 5.4437 23.3347 5.00168 23.3347ZM25.0017 23.3347C24.5596 23.3347 24.1357 23.5103 23.8232 23.8229C23.5106 24.1355 23.335 24.5594 23.335 25.0014C23.335 25.4434 23.5106 25.8674 23.8232 26.1799C24.1357 26.4925 24.5596 26.6681 25.0017 26.6681C25.4437 26.6681 25.8676 26.4925 26.1802 26.1799C26.4928 25.8674 26.6683 25.4434 26.6683 25.0014C26.6683 24.5594 26.4928 24.1355 26.1802 23.8229C25.8676 23.5103 25.4437 23.3347 25.0017 23.3347Z" fill="white"/>
</svg>
