<svg width="67" height="50" viewBox="0 0 67 50" fill="none" xmlns="http://www.w3.org/2000/svg">
<path d="M0.516626 36.8226L0.591635 37.3735L0.677427 37.355C1.22618 40.0822 2.53993 42.5992 4.46667 44.6148C6.39341 46.6304 8.8544 48.0622 11.5649 48.7445C14.2753 49.4268 17.1245 49.3318 19.7828 48.4704C22.441 47.609 24.7996 46.0164 26.5857 43.877C28.3718 41.7376 29.5124 39.1387 29.8755 36.3811C30.2387 33.6234 29.8095 30.8198 28.6376 28.2945C27.4657 25.7692 25.5991 23.6255 23.2536 22.1114C20.9082 20.5974 18.1799 19.7748 15.3843 19.7389C14.6506 19.7292 13.9451 19.8312 13.243 19.9234C13.48 19.1671 13.7238 18.3979 14.108 17.709C14.4963 16.7059 15.0934 15.8398 15.6873 14.9672C16.1868 14.0212 17.0539 13.3878 17.6963 12.5812C18.368 11.7979 19.2764 11.2829 19.999 10.6345C20.7088 9.95647 21.6312 9.62492 22.3679 9.15018C23.1369 8.72497 23.8078 8.25264 24.5215 8.03291L26.3043 7.32974L27.8722 6.70556L26.3635 0.33879L24.3932 0.784184C23.7628 0.932995 22.9938 1.10617 22.1191 1.31395C21.2254 1.46584 20.2687 1.90167 19.204 2.2968C18.1549 2.75106 16.9368 3.04597 15.8018 3.78059C14.6607 4.47913 13.3468 5.05756 12.1827 5.99802C11.0545 6.96841 9.69766 7.80486 8.68764 9.04194C7.58654 10.1993 6.49782 11.4157 5.64703 12.8054C4.6655 14.128 3.99149 15.5855 3.28151 17.0262C2.63733 18.4678 2.11444 19.9437 1.68423 21.3783C0.866493 24.2546 0.481624 26.9925 0.315822 29.3372C0.173008 31.6856 0.213062 33.6403 0.332604 35.0559C0.371062 35.6469 0.432441 36.2363 0.516626 36.8226ZM36.7054 37.2994L36.7804 37.8503L36.8662 37.8318C37.4149 40.559 38.7287 43.0761 40.6554 45.0916C42.5822 47.1072 45.0431 48.539 47.7536 49.2213C50.4641 49.9037 53.3133 49.8086 55.9715 48.9472C58.6297 48.0858 60.9883 46.4933 62.7745 44.3538C64.5606 42.2144 65.7012 39.6155 66.0643 36.8579C66.4274 34.1003 65.9982 31.2966 64.8263 28.7713C63.6545 26.2461 61.7878 24.1024 59.4424 22.5883C57.097 21.0742 54.3686 20.2516 51.573 20.2157C50.8394 20.206 50.1339 20.308 49.4318 20.4003C49.6688 19.644 49.9125 18.8747 50.2967 18.1858C50.6851 17.1828 51.2822 16.3167 51.8761 15.444C52.3755 14.498 53.2427 13.8646 53.8851 13.0581C54.5568 12.2748 55.4652 11.7597 56.1877 11.1113C56.8975 10.4333 57.8199 10.1018 58.5567 9.62702C59.3257 9.2018 59.9966 8.72947 60.7102 8.50974L62.493 7.80658C63.4886 7.41708 64.0575 7.18889 64.0575 7.18889L62.5489 0.822131L60.5786 1.26752C59.9481 1.41633 59.1792 1.5895 58.3045 1.79729C57.4108 1.94918 56.4541 2.38501 55.3893 2.78014C54.3403 3.2344 53.1222 3.52931 51.9872 4.26393C50.8461 4.96247 49.5322 5.54089 48.3681 6.48135C47.2398 7.45174 45.883 8.28819 44.873 9.52528C43.7719 10.6826 42.6832 11.899 41.8324 13.2888C40.8509 14.6113 40.1769 16.0689 39.4669 17.5096C38.8227 18.9512 38.2998 20.4271 37.8696 21.8616C37.0519 24.7379 36.667 27.4758 36.5012 29.8206C36.3584 32.1689 36.3984 34.1236 36.518 35.5392C36.5594 36.128 36.6219 36.7151 36.7054 37.2994Z" fill="#D54D3D"/>
</svg>
