<svg width="62" height="48" viewBox="0 0 62 48" fill="none" xmlns="http://www.w3.org/2000/svg">
<path fill-rule="evenodd" clip-rule="evenodd" d="M8.48785 42.8571C7.94197 42.8571 7.41845 42.6765 7.03245 42.355C6.64646 42.0336 6.42961 41.5975 6.42961 41.1429V6.85714C6.42961 6.40249 6.64646 5.96645 7.03245 5.64496C7.41845 5.32347 7.94197 5.14286 8.48785 5.14286H46.5653C47.3841 5.14286 48.1694 4.87194 48.7484 4.3897C49.3274 3.90747 49.6527 3.25341 49.6527 2.57143C49.6527 1.88944 49.3274 1.23539 48.7484 0.753154C48.1694 0.270918 47.3841 1.01624e-08 46.5653 0H8.48785C6.30433 0 4.21024 0.722447 2.66626 2.00841C1.12228 3.29437 0.254883 5.03852 0.254883 6.85714V41.1429C0.254883 42.9615 1.12228 44.7056 2.66626 45.9916C4.21024 47.2776 6.30433 48 8.48785 48H49.6527C51.8362 48 53.9303 47.2776 55.4743 45.9916C57.0182 44.7056 57.8856 42.9615 57.8856 41.1429V30C57.8856 29.318 57.5604 28.664 56.9814 28.1817C56.4024 27.6995 55.6171 27.4286 54.7983 27.4286C53.9795 27.4286 53.1942 27.6995 52.6152 28.1817C52.0362 28.664 51.7109 29.318 51.7109 30V41.1429C51.7109 41.5975 51.4941 42.0336 51.1081 42.355C50.7221 42.6765 50.1986 42.8571 49.6527 42.8571H8.48785ZM61.0965 12.6171C61.6418 12.1297 61.9387 11.485 61.9246 10.8188C61.9105 10.1526 61.5865 9.517 61.0208 9.04587C60.4552 8.57474 59.692 8.30487 58.8922 8.29311C58.0924 8.28136 57.3183 8.52864 56.733 8.98286L33.8536 28.0354L26.1434 21.3977C25.8621 21.1529 25.5255 20.9568 25.1529 20.8207C24.7803 20.6846 24.3791 20.6112 23.9723 20.6047C23.5655 20.5982 23.1612 20.6587 22.7826 20.7827C22.404 20.9068 22.0586 21.092 21.7662 21.3276C21.4738 21.5632 21.2402 21.8447 21.0788 22.1557C20.9174 22.4668 20.8315 22.8014 20.8259 23.1402C20.8203 23.4791 20.8951 23.8155 21.0462 24.1301C21.1972 24.4448 21.4214 24.7315 21.7059 24.9737L31.5978 33.4903C31.8824 33.7361 32.223 33.9323 32.5996 34.0674C32.9763 34.2024 33.3814 34.2736 33.7915 34.2768C34.2015 34.28 34.6082 34.2151 34.9878 34.086C35.3674 33.9568 35.7123 33.766 36.0024 33.5246L61.0965 12.6171Z" fill="#D00606"/>
</svg>
